<svg width="174" height="174" viewBox="0 0 174 174" fill="none" xmlns="http://www.w3.org/2000/svg">
<g clip-path="url(#clip0_4650_21932)">
<path fill-rule="evenodd" clip-rule="evenodd" d="M9.49803 74.0932C2.36635 116.894 31.2818 157.372 74.0826 164.504C116.883 171.636 157.362 142.72 164.493 99.9193C171.625 57.1186 142.709 16.6403 99.9087 9.50866C57.1079 2.37699 16.6297 31.2925 9.49803 74.0932ZM72.8375 171.977C25.9097 164.157 -5.79398 119.776 2.02536 72.8481C9.8447 25.9203 54.226 -5.78334 101.154 2.036C148.082 9.85534 179.785 54.2367 171.966 101.164C164.147 148.092 119.765 179.796 72.8375 171.977Z" fill="white"/>
<path d="M121.026 40.0481C117.623 40.0481 114.973 41.1605 113.043 43.3527C111.145 45.5449 110.164 48.097 110.164 51.0417C110.164 53.9864 111.112 56.4731 113.01 58.5671C114.875 60.6938 117.558 61.7408 121.026 61.7408C124.494 61.7408 127.112 60.6611 128.977 58.5344C130.875 56.4076 131.791 53.8555 131.791 50.9108C131.791 47.9661 130.875 45.3813 128.977 43.2218C127.112 41.0951 124.429 40.0481 121.026 40.0481ZM132.183 66.9432H109.64V127.506H132.183V66.9432ZM71.3587 81.2741L71.4241 99.6622H77.0845C79.6366 99.6622 80.9454 100.742 80.9454 102.901C80.9454 105.061 79.1786 106.108 75.6449 106.108C72.9947 106.108 70.508 105.552 68.2177 104.472C65.9273 103.392 63.9642 101.887 62.3282 99.9567C60.6596 97.9936 59.3835 95.7687 58.5001 93.3147C57.6821 90.8281 57.2895 88.2433 57.2895 85.5603C57.6167 79.9654 59.7107 75.5156 63.5388 72.3091C67.367 69.0699 71.8822 67.4667 77.0845 67.4667C80.6836 67.4667 83.8901 68.1865 86.7694 69.5934V44.9887C82.7449 43.6799 78.5242 43.0255 74.0417 43.0255C68.5121 43.0255 63.1789 44.0398 58.0093 46.0357C52.8397 48.0315 48.259 50.8781 44.2019 54.5099C40.1774 58.2072 37.0364 62.6243 34.7461 67.7284C32.3576 72.8653 31.1797 78.3621 31.1797 84.2516C31.1797 90.141 32.1285 95.4742 34.0917 100.873C36.0548 106.271 38.8359 111.147 42.5005 115.466C46.1323 119.817 50.4512 123.22 55.4245 125.739C60.3978 128.226 65.8292 129.502 71.6859 129.502C75.7431 129.502 79.6039 128.815 83.3012 127.408C86.9984 126.034 90.2376 124.005 93.0842 121.388C95.898 118.77 98.0902 115.629 99.6607 111.997C101.198 108.366 101.984 104.407 101.984 100.088C101.984 93.3802 99.4971 87.1308 94.4911 81.2741H71.3914H71.3587Z" fill="white"/>
</g>
<defs>
<clipPath id="clip0_4650_21932">
<rect width="174" height="174" fill="white"/>
</clipPath>
</defs>
</svg>
